<?xml version="1.0" encoding="UTF-8"?>
<svg version="1.1" xmlns="http://www.w3.org/2000/svg" width="600" height="356">
<path d="M0 0 C1.21285675 -0.00671722 2.4257135 -0.01343445 3.67532349 -0.02035522 C6.97539402 -0.03600532 10.27531278 -0.04270495 13.57541585 -0.0439868 C15.64703819 -0.04541745 17.71863487 -0.0497043 19.79025078 -0.05498123 C27.0458936 -0.0734409 34.30146338 -0.08165751 41.55712891 -0.08007812 C48.27360637 -0.07887985 54.98976089 -0.09993059 61.70615679 -0.13156545 C67.50956356 -0.15790579 73.31286607 -0.16843797 79.11633199 -0.16716731 C82.56589651 -0.16666258 86.01517394 -0.1720686 89.46467781 -0.19352341 C124.53149823 -0.37362212 124.53149823 -0.37362212 139.85131836 8.04052734 C140.83189209 8.55703857 140.83189209 8.55703857 141.83227539 9.08398438 C162.91252887 20.47073884 177.57987297 38.38991367 184.85131836 61.22802734 C187.344361 69.62849711 187.62870166 77.53960772 187.63745117 86.24584961 C187.64241608 87.43382645 187.64738098 88.62180328 187.65249634 89.84577942 C187.66455657 93.09000896 187.67205087 96.33420258 187.676507 99.57845044 C187.67945118 101.61233557 187.68355852 103.64621523 187.68801117 105.68009758 C187.70166873 112.06384075 187.7113428 118.44757122 187.71521306 124.83132797 C187.71968388 132.16241481 187.73719351 139.49331429 187.76621366 146.82434422 C187.78794811 152.51553134 187.79792363 158.20666621 187.79925418 163.89789432 C187.80029422 167.28532612 187.80602815 170.67258142 187.82407379 174.05996895 C187.9557247 203.06528784 183.20841026 227.24192934 162.34350586 248.54443359 C155.52604172 255.07396668 148.11945261 260.21685729 139.78881836 264.60302734 C139.21494385 264.9165918 138.64106934 265.23015625 138.04980469 265.55322266 C122.2741651 273.40221721 104.88598039 272.90789009 87.73332644 272.86076093 C84.98297401 272.85557659 82.23270845 272.86300289 79.48236501 272.870233 C72.98059455 272.88711469 66.47905941 272.88378668 59.97729492 272.86694336 C53.32819941 272.8500382 46.6797613 272.86586078 40.03073752 272.89816624 C34.26703966 272.92508201 28.50354363 272.9320795 22.73978937 272.92365116 C19.32153169 272.91878468 15.90366832 272.92058739 12.48546219 272.94143867 C-13.96621516 273.06376307 -36.32430095 269.59197965 -56.52368164 251.29052734 C-57.35383789 250.55318359 -58.18399414 249.81583984 -59.03930664 249.05615234 C-75.68505839 233.43161236 -84.76742468 211.45785627 -85.61852074 188.76142502 C-85.65970514 185.97691789 -85.67024283 183.19399101 -85.66894531 180.40917969 C-85.67230392 179.35906708 -85.67566254 178.30895447 -85.67912292 177.22702026 C-85.68857276 173.77682287 -85.6905732 170.32667435 -85.69165039 166.87646484 C-85.69486769 164.45903504 -85.69823212 162.04160543 -85.70173645 159.62417603 C-85.70771323 154.56227162 -85.7095779 149.50038425 -85.70898438 144.43847656 C-85.70888297 137.98655403 -85.72251933 131.53474208 -85.73975658 125.08284569 C-85.75093597 120.08964548 -85.75290175 115.09647148 -85.75237465 110.10326004 C-85.75354644 107.72648361 -85.75792263 105.34970632 -85.76570702 102.97294235 C-85.8577636 71.95686774 -81.1532206 45.94179309 -59.04711914 22.68505859 C-42.66501587 7.18342667 -22.26783213 -0.01794225 0 0 Z " fill="#E07101" transform="translate(254.523681640625,39.70947265625)"/>
<path d="M0 0 C6.05784393 0.07838245 11.8052526 2.08708957 17.58642578 3.73046875 C21.24814782 4.74482447 24.93654545 5.65113746 28.625 6.5625 C29.68170898 6.82498535 29.68170898 6.82498535 30.75976562 7.09277344 C32.40206414 7.50047692 34.04473835 7.90666664 35.6875 8.3125 C35.6875 8.9725 35.6875 9.6325 35.6875 10.3125 C36.42355469 10.37308594 37.15960938 10.43367188 37.91796875 10.49609375 C38.89378906 10.57988281 39.86960937 10.66367188 40.875 10.75 C42.31939453 10.87181641 42.31939453 10.87181641 43.79296875 10.99609375 C46.47399602 11.28916151 49.0537986 11.73953754 51.6875 12.3125 C51.6875 12.9725 51.6875 13.6325 51.6875 14.3125 C53.13769531 14.24482422 53.13769531 14.24482422 54.6171875 14.17578125 C59.22437103 14.18157791 63.39617245 15.27324235 67.8125 16.5 C68.59753906 16.69658203 69.38257813 16.89316406 70.19140625 17.09570312 C75.24995485 18.48189899 78.37659897 20.02854791 81.6875 24.3125 C82.7265625 26.79296875 82.7265625 26.79296875 83.3125 29.5 C83.53808594 30.53640625 83.76367188 31.5728125 83.99609375 32.640625 C87.92902577 53.52738264 87.92902577 53.52738264 87.6875 59.3125 C89.110625 59.0340625 89.110625 59.0340625 90.5625 58.75 C95.81862396 58.71795046 98.83263822 62.47705621 102.375 65.94921875 C103.138125 66.72910156 103.90125 67.50898438 104.6875 68.3125 C105.265 68.83457031 105.8425 69.35664063 106.4375 69.89453125 C109.46211146 72.87617948 110.01190835 75.36024837 110.125 79.4375 C110.01334556 83.65409719 109.26682982 86.7602135 106.19042969 89.78393555 C105.28405762 90.51543823 105.28405762 90.51543823 104.359375 91.26171875 C100.57076272 94.46766505 97.06101998 97.86551701 93.578125 101.39453125 C93.03973999 101.93858612 92.50135498 102.48264099 91.94665527 103.04318237 C89.70387249 105.31299212 87.46529176 107.58686382 85.23095703 109.86499023 C83.58023302 111.54589593 81.92335568 113.22053936 80.265625 114.89453125 C79.76452209 115.40909378 79.26341919 115.92365631 78.74713135 116.45381165 C74.84627695 120.38244884 72.37143645 122.07640169 66.8984375 122.84375 C62.40864682 122.71886013 60.2050406 120.81943981 57.10546875 117.7265625 C56.51378906 117.09492188 55.92210937 116.46328125 55.3125 115.8125 C54.69761719 115.21179688 54.08273437 114.61109375 53.44921875 113.9921875 C49.23606953 109.6591894 47.67590738 106.26930184 46.6875 100.3125 C41.73505372 99.23946997 36.80093305 98.31054555 31.78125 97.6171875 C30.90436523 97.49448486 30.02748047 97.37178223 29.12402344 97.24536133 C27.3576589 97.00185215 25.59006758 96.76705438 23.82128906 96.54174805 C17.56530771 95.673534 12.60834585 94.59674912 8.375 89.5625 C6.52890233 86.00705264 6.11174718 83.27214038 5.6875 79.3125 C5.2234375 77.95125 5.2234375 77.95125 4.75 76.5625 C2.81459775 70.64244606 1.6875 64.54031031 1.6875 58.3125 C1.0275 58.3125 0.3675 58.3125 -0.3125 58.3125 C-0.3125 56.3325 -0.3125 54.3525 -0.3125 52.3125 C-0.9725 52.3125 -1.6325 52.3125 -2.3125 52.3125 C-4.43474832 44.10166548 -6.46959403 35.95172572 -7.875 27.58203125 C-8.42488568 24.72949929 -9.37504029 22.05791772 -10.3125 19.3125 C-10.3125 17.9925 -10.3125 16.6725 -10.3125 15.3125 C-10.9725 15.3125 -11.6325 15.3125 -12.3125 15.3125 C-13.09284682 7.35296243 -13.09284682 7.35296243 -10.0625 3.3125 C-6.35898008 0.61903097 -4.50319537 0.42482975 0 0 Z " fill="#FDF8F0" transform="translate(255.3125,113.6875)"/>
<path d="M0 0 C1.48011371 0.30798326 2.95907325 0.621518 4.4375 0.9375 C5.26121094 1.11152344 6.08492188 1.28554687 6.93359375 1.46484375 C9 2 9 2 10 3 C11.70239543 3.30594651 13.41266981 3.56820756 15.125 3.8125 C22.57686899 4.98863836 29.74883499 6.95937159 37 9 C37 9.66 37 10.32 37 11 C38.11375 10.938125 39.2275 10.87625 40.375 10.8125 C47.34643115 10.80011735 53.61005513 13.44402205 60 16 C60.495 21.445 60.495 21.445 61 27 C61.66 27 62.32 27 63 27 C63.13277344 27.98742187 63.26554687 28.97484375 63.40234375 29.9921875 C63.66724609 31.91417969 63.66724609 31.91417969 63.9375 33.875 C64.11152344 35.15117187 64.28554688 36.42734375 64.46484375 37.7421875 C64.81433227 40.87559454 64.81433227 40.87559454 66 43 C66.53168112 46.75197698 66.65969824 50.2598926 66 54 C64.49036845 55.7828883 63.02897661 56.636332 60.99609375 57.7734375 C56.54233781 60.51018772 53.42822491 65.22851074 50.1796875 69.2578125 C49.58414063 69.97710937 48.98859375 70.69640625 48.375 71.4375 C47.84648437 72.09621094 47.31796875 72.75492187 46.7734375 73.43359375 C44.48139085 75.45806667 43.03777702 75.74758996 40 76 C36.921875 75.6953125 36.921875 75.6953125 33.75 75.125 C32.16445313 74.85042969 32.16445313 74.85042969 30.546875 74.5703125 C28 74 28 74 27 73 C25.55135458 72.64529053 24.08999751 72.34209732 22.625 72.0625 C21.28695313 71.80533203 21.28695313 71.80533203 19.921875 71.54296875 C15.28374878 70.68107096 10.64353746 69.83222757 6 69 C5.85900879 68.39526855 5.71801758 67.79053711 5.57275391 67.16748047 C4.9264052 64.40263255 4.2757401 61.6388175 3.625 58.875 C3.40328125 57.92367187 3.1815625 56.97234375 2.953125 55.9921875 C2.73398437 55.0640625 2.51484375 54.1359375 2.2890625 53.1796875 C2.09006348 52.33132324 1.89106445 51.48295898 1.68603516 50.60888672 C1.19519347 48.74229091 0.62774373 46.89518311 0.01147461 45.06616211 C-1.00563686 41.98291254 -1.76605328 38.92965945 -2.47265625 35.76171875 C-2.86227539 34.03791992 -2.86227539 34.03791992 -3.25976562 32.27929688 C-3.79926512 29.865332 -4.33832065 27.45126786 -4.87695312 25.03710938 C-5.26463867 23.32297852 -5.26463867 23.32297852 -5.66015625 21.57421875 C-5.89355713 20.52838623 -6.12695801 19.48255371 -6.36743164 18.4050293 C-6.76687966 16.06512593 -6.76687966 16.06512593 -8 15 C-8.04063832 13.33382885 -8.042721 11.66611905 -8 10 C-2.75715884 14.3690343 2.51941304 18.83277764 7 24 C7 24.66 7 25.32 7 26 C7.721875 26.226875 8.44375 26.45375 9.1875 26.6875 C12.93133085 28.43462106 14.62699398 29.54219123 17 33 C17.19180117 36.2780563 17.05605567 39.48513 16.93359375 42.765625 C17.027304 47.32986546 18.19287604 50.42968921 21 54 C24.46680503 57.30171907 27.20126511 58.27061424 31.875 58.5 C37.66243208 58.26431272 42.30136986 56.35574537 46.66015625 52.55078125 C49.66204407 49.07629302 49.10241539 45.16327787 49.0625 40.8125 C49.05347656 39.54019531 49.04445313 38.26789063 49.03515625 36.95703125 C49.02355469 35.98121094 49.01195312 35.00539062 49 34 C48.34 34 47.68 34 47 34 C46.401875 33.236875 45.80375 32.47375 45.1875 31.6875 C42.87783977 28.84991743 41.28477636 27.5630683 38 26 C34.97564265 25.97353397 34.97564265 25.97353397 31.8125 26.375 C26.17721703 26.53473024 23.63123965 25.58935456 19.4375 21.8125 C17.08124052 19.41650595 14.96472452 16.95558142 12.875 14.32421875 C10.81670782 11.77279407 8.57980408 10.01350562 6 8 C1.16483516 3.49450549 1.16483516 3.49450549 0 0 Z " fill="#DF7206" transform="translate(267,128)"/>
<path d="M0 0 C3.29696105 1.09898702 4.04670589 1.94597387 6.1875 4.5625 C6.71730469 5.20316406 7.24710937 5.84382812 7.79296875 6.50390625 C8.19128906 6.99761719 8.58960938 7.49132812 9 8 C7.43960843 11.4979394 5.56623776 13.33716121 2.5625 15.734375 C-1.48041563 19.00913666 -4.85754245 22.94342083 -8.3125 26.8125 C-11.28929394 30.12722714 -14.28200239 33.41807983 -17.375 36.625 C-18.31472656 37.60339844 -18.31472656 37.60339844 -19.2734375 38.6015625 C-21 40 -21 40 -24 40 C-26.64752664 37.7937278 -28.57612925 35.90014769 -30.05249023 32.76489258 C-29.97842885 28.86375215 -28.22686747 27.54506084 -25.5393219 24.85954285 C-24.87794724 24.22913589 -24.21657257 23.59872894 -23.53515625 22.94921875 C-22.86785995 22.29041214 -22.20056366 21.63160553 -21.51304626 20.95283508 C-19.3765153 18.84991587 -17.22008513 16.76879111 -15.0625 14.6875 C-13.6112713 13.26636031 -12.1613834 11.84385005 -10.71289062 10.41992188 C-7.15729555 6.93051483 -3.5837108 3.4605158 0 0 Z " fill="#E07209" transform="translate(345,184)"/>
<path d="M0 0 C5.24284116 4.3690343 10.51941304 8.83277764 15 14 C15 14.66 15 15.32 15 16 C15.78375 16.2475 16.5675 16.495 17.375 16.75 C20.32317108 18.15389099 20.9024777 19.00675737 22 22 C21.34 22 20.68 22 20 22 C20 21.34 20 20.68 20 20 C18.35 19.34 16.7 18.68 15 18 C14.34 19.32 13.68 20.64 13 22 C13 21.34 13 20.68 13 20 C12.34 20 11.68 20 11 20 C10.34898282 32.87160434 10.34898282 32.87160434 14 45 C15.93889754 49.18393679 16.18117715 52.37998257 16 57 C17.216875 57.144375 18.43375 57.28875 19.6875 57.4375 C22.82670377 57.82780953 25.9075134 58.32351856 29 59 C29 59.66 29 60.32 29 61 C30.8253125 60.938125 30.8253125 60.938125 32.6875 60.875 C36.21894127 60.86245492 38.80003566 61.40001783 42 63 C42 63.33 42 63.66 42 64 C40.00045254 64.04254356 37.99958364 64.04080783 36 64 C35.67 63.67 35.34 63.34 35 63 C33.55135458 62.64529053 32.08999751 62.34209732 30.625 62.0625 C29.73296875 61.89105469 28.8409375 61.71960938 27.921875 61.54296875 C23.28374878 60.68107096 18.64353746 59.83222757 14 59 C13.85900879 58.39526855 13.71801758 57.79053711 13.57275391 57.16748047 C12.9264052 54.40263255 12.2757401 51.6388175 11.625 48.875 C11.40328125 47.92367187 11.1815625 46.97234375 10.953125 45.9921875 C10.73398437 45.0640625 10.51484375 44.1359375 10.2890625 43.1796875 C10.09006348 42.33132324 9.89106445 41.48295898 9.68603516 40.60888672 C9.19519347 38.74229091 8.62774373 36.89518311 8.01147461 35.06616211 C6.99436314 31.98291254 6.23394672 28.92965945 5.52734375 25.76171875 C5.26759766 24.61251953 5.00785156 23.46332031 4.74023438 22.27929688 C4.20073488 19.865332 3.66167935 17.45126786 3.12304688 15.03710938 C2.73536133 13.32297852 2.73536133 13.32297852 2.33984375 11.57421875 C2.10644287 10.52838623 1.87304199 9.48255371 1.63256836 8.4050293 C1.23312034 6.06512593 1.23312034 6.06512593 0 5 C-0.04063832 3.33382885 -0.042721 1.66611905 0 0 Z " fill="#D7750E" transform="translate(259,138)"/>
<path d="M0 0 C0.33 0 0.66 0 1 0 C1.05382106 2.62527189 1.09358313 5.24944713 1.125 7.875 C1.14175781 8.62136719 1.15851563 9.36773437 1.17578125 10.13671875 C1.1933959 12.09194461 1.10320189 14.04742021 1 16 C0.34 16.66 -0.32 17.32 -1 18 C-2.36259315 23.46905269 -2.17300859 29.08571977 -2.20532227 34.68701172 C-2.21522186 35.75102707 -2.22512146 36.81504242 -2.23532104 37.91130066 C-2.26683047 41.41740721 -2.29165172 44.92352729 -2.31640625 48.4296875 C-2.33698489 50.86492255 -2.3579816 53.30015409 -2.37937927 55.73538208 C-2.43450591 62.13697471 -2.48395665 68.53859907 -2.53222656 74.94024658 C-2.58251033 81.47581803 -2.63816048 88.01134354 -2.69335938 94.546875 C-2.80082587 107.36454381 -2.90247862 120.18225187 -3 133 C-3.66 133.33 -4.32 133.66 -5 134 C-5.04694598 120.04724251 -5.08196523 106.09449746 -5.10362434 92.1416769 C-5.11402402 85.66156191 -5.12811298 79.1815003 -5.15087891 72.70141602 C-5.17274403 66.43793786 -5.18459726 60.17451079 -5.18975449 53.91099739 C-5.19342584 51.53142557 -5.20059447 49.15185628 -5.21146011 46.77230644 C-5.34996647 15.15823834 -5.34996647 15.15823834 0 0 Z " fill="#C47A33" transform="translate(174,96)"/>
<path d="M0 0 C1.48011371 0.30798326 2.95907325 0.621518 4.4375 0.9375 C5.26121094 1.11152344 6.08492188 1.28554687 6.93359375 1.46484375 C9 2 9 2 10 3 C11.70239543 3.30594651 13.41266981 3.56820756 15.125 3.8125 C22.57686899 4.98863836 29.74883499 6.95937159 37 9 C33.24287638 10.10655011 29.90363264 10.00098142 26.0234375 9.83984375 C23.76927541 9.79798541 23.76927541 9.79798541 22 12 C20.68 12 19.36 12 18 12 C17.67 13.32 17.34 14.64 17 16 C17.99 16 18.98 16 20 16 C23 20.22222222 23 20.22222222 23 23 C24.78857422 23.07347656 24.78857422 23.07347656 26.61328125 23.1484375 C28.17971068 23.22347604 29.74611579 23.2990234 31.3125 23.375 C32.49102539 23.42140625 32.49102539 23.42140625 33.69335938 23.46875 C34.8293457 23.52675781 34.8293457 23.52675781 35.98828125 23.5859375 C37.03302612 23.63306885 37.03302612 23.63306885 38.09887695 23.68115234 C40 24 40 24 43 26 C43 26.66 43 27.32 43 28 C42.30261719 27.66097656 41.60523438 27.32195312 40.88671875 26.97265625 C37.53705799 25.84401548 35.31094253 26.09234306 31.8125 26.4375 C26.19438761 26.55215535 23.61859574 25.57176413 19.4375 21.8125 C17.08124052 19.41650595 14.96472452 16.95558142 12.875 14.32421875 C10.81670782 11.77279407 8.57980408 10.01350562 6 8 C1.16483516 3.49450549 1.16483516 3.49450549 0 0 Z " fill="#DF7109" transform="translate(267,128)"/>
<path d="M0 0 C-9.16990721 5.06360436 -19.90672124 5.43727105 -30.1340332 5.34057617 C-31.99493591 5.34123329 -31.99493591 5.34123329 -33.89343262 5.34190369 C-37.25021892 5.34018879 -40.60643103 5.32528881 -43.96311593 5.30418181 C-47.48777798 5.28525049 -51.0124501 5.28365176 -54.53715515 5.28010559 C-61.1914545 5.27083291 -67.84560353 5.24628492 -74.4998371 5.21605712 C-82.08401165 5.18236303 -89.6681939 5.16598963 -97.25242484 5.15097082 C-112.83503652 5.11973023 -128.41749877 5.06706427 -144 5 C-144 4.67 -144 4.34 -144 4 C-102.42 4 -60.84 4 -18 4 C-18 3.34 -18 2.68 -18 2 C-11.92972642 -0.1583195 -6.40629424 -0.20852314 0 0 Z " fill="#CC7827" transform="translate(386,307)"/>
<path d="M0 0 C3.57810928 2.38540619 3.66964798 3.87088896 4.5390625 7.92578125 C4.69117188 8.69277344 4.84328125 9.45976562 5 10.25 C6.09567442 15.66337447 7.45302956 20.0495504 10 25 C10.1875 28.875 10.1875 28.875 10 32 C11.216875 32.144375 12.43375 32.28875 13.6875 32.4375 C16.82670377 32.82780953 19.9075134 33.32351856 23 34 C23 34.66 23 35.32 23 36 C24.8253125 35.938125 24.8253125 35.938125 26.6875 35.875 C30.21894127 35.86245492 32.80003566 36.40001783 36 38 C36 38.33 36 38.66 36 39 C34.00045254 39.04254356 31.99958364 39.04080783 30 39 C29.505 38.505 29.505 38.505 29 38 C27.55135458 37.64529053 26.08999751 37.34209732 24.625 37.0625 C23.73296875 36.89105469 22.8409375 36.71960938 21.921875 36.54296875 C17.28374878 35.68107096 12.64353746 34.83222757 8 34 C7.85900879 33.39526855 7.71801758 32.79053711 7.57275391 32.16748047 C6.9264052 29.40263255 6.2757401 26.6388175 5.625 23.875 C5.40328125 22.92367187 5.1815625 21.97234375 4.953125 20.9921875 C3.83026775 16.2365568 2.58020741 11.62775028 1 7 C0.62468554 4.67305036 0.28082798 2.34023315 0 0 Z " fill="#D78736" transform="translate(265,163)"/>
<path d="M0 0 C4.20966359 0.61624524 8.41744414 1.24453733 12.625 1.875 C13.81480469 2.04902344 15.00460937 2.22304687 16.23046875 2.40234375 C17.38417969 2.57636719 18.53789062 2.75039062 19.7265625 2.9296875 C20.78439941 3.08679199 21.84223633 3.24389648 22.93212891 3.40576172 C26.09840175 4.01906015 28.99755432 4.82201872 32 6 C33.21484375 7.91796875 33.21484375 7.91796875 33.9375 10.1875 C35.67213502 14.75660246 38.01827417 17.42834967 41.609375 20.6875 C42.29773438 21.3371875 42.29773438 21.3371875 43 22 C43 22.33 43 22.66 43 23 C41.35 23 39.7 23 38 23 C37.505 22.01 37.505 22.01 37 21 C36.01 20.67 35.02 20.34 34 20 C33.05078125 17.8203125 33.05078125 17.8203125 32.3125 15.125 C32.06113281 14.24070313 31.80976563 13.35640625 31.55078125 12.4453125 C31 10 31 10 31 7 C27.7 7 24.4 7 21 7 C21 6.34 21 5.68 21 5 C20.03900391 5.03480469 20.03900391 5.03480469 19.05859375 5.0703125 C12.09456094 5.21561274 6.18634108 4.464351 0 1 C0 0.67 0 0.34 0 0 Z " fill="#D68936" transform="translate(270,208)"/>
<path d="M0 0 C2.8125 0.125 2.8125 0.125 6 1 C8.94161522 5.52137154 9.33816321 9.0515665 9.1875 14.375 C9.16042969 15.62023437 9.13335937 16.86546875 9.10546875 18.1484375 C9.07066406 19.08945313 9.03585937 20.03046875 9 21 C8.34 21 7.68 21 7 21 C6.896875 21.928125 6.79375 22.85625 6.6875 23.8125 C6 27 6 27 4.875 28.8125 C2.06937763 30.58939417 -0.74104317 30.69255124 -4 31 C-4 31.66 -4 32.32 -4 33 C-5.62463842 33.05395478 -7.24978541 33.09277195 -8.875 33.125 C-9.77992188 33.14820313 -10.68484375 33.17140625 -11.6171875 33.1953125 C-14 33 -14 33 -16 31 C-15.154375 30.92523438 -14.30875 30.85046875 -13.4375 30.7734375 C-5.98454776 29.90957258 -0.18977505 28.72916178 5 23 C6.18681726 19.43954823 6.09689832 16.56191663 6.0625 12.8125 C6.05347656 11.54019531 6.04445313 10.26789063 6.03515625 8.95703125 C6.02355469 7.98121094 6.01195312 7.00539062 6 6 C5.34 6 4.68 6 4 6 C2.61061923 4.03852126 1.2739589 2.03833424 0 0 Z " fill="#D48029" transform="translate(310,156)"/>
<path d="M0 0 C2.8965617 1.44828085 3.29315129 3.68494782 4.33984375 6.609375 C5.2548833 9.92300935 5.55687381 13.18344975 5.7890625 16.60546875 C6.01102978 19.12520842 6.46467033 21.52958523 7 24 C7.69867188 24.17015625 8.39734375 24.3403125 9.1171875 24.515625 C10.02726562 24.75796875 10.93734375 25.0003125 11.875 25.25 C12.77992188 25.48203125 13.68484375 25.7140625 14.6171875 25.953125 C17 27 17 27 18.3828125 28.921875 C19 31 19 31 18 34 C17.57589844 33.57847656 17.15179688 33.15695313 16.71484375 32.72265625 C16.12832031 32.17480469 15.54179687 31.62695312 14.9375 31.0625 C14.36902344 30.51722656 13.80054688 29.97195312 13.21484375 29.41015625 C10.23128484 27.51057113 7.48065008 27.33009767 4 27 C2.04172794 17.98455884 0.49862725 9.23320113 0 0 Z " fill="#D79348" transform="translate(339,146)"/>
<path d="M0 0 C1.7325 0.1546875 1.7325 0.1546875 3.5 0.3125 C5.5 3.3125 5.5 3.3125 5.3125 6.375 C4.5 9.3125 4.5 9.3125 1.5 11.3125 C-1.0625 11.625 -1.0625 11.625 -3.5 11.3125 C-5.80163882 7.86004176 -5.84490322 6.36511287 -5.5 2.3125 C-3.5 0.3125 -3.5 0.3125 0 0 Z " fill="#D58E49" transform="translate(300.5,164.6875)"/>
<path d="M0 0 C1.175625 0.0825 2.35125 0.165 3.5625 0.25 C4.2225 1.24 4.8825 2.23 5.5625 3.25 C-0.4375 9.25 -0.4375 9.25 -3 9.3125 C-3.804375 9.291875 -4.60875 9.27125 -5.4375 9.25 C-5.7675 9.91 -6.0975 10.57 -6.4375 11.25 C-6.7675 9.93 -7.0975 8.61 -7.4375 7.25 C-8.4275 7.25 -9.4175 7.25 -10.4375 7.25 C-10.25 5.375 -10.25 5.375 -9.4375 3.25 C-6.9375 2.0625 -6.9375 2.0625 -4.4375 1.25 C-3.4375 0.25 -3.4375 0.25 0 0 Z " fill="#DF7003" transform="translate(294.4375,136.75)"/>
<path d="M0 0 C1.65 0.33 3.3 0.66 5 1 C5.33 2.32 5.66 3.64 6 5 C6.99 5 7.98 5 9 5 C9.19532961 6.7699868 9.38098882 8.54104279 9.5625 10.3125 C9.66691406 11.29863281 9.77132813 12.28476563 9.87890625 13.30078125 C10 16 10 16 9 19 C8.34 19 7.68 19 7 19 C7.12375 19.7425 7.2475 20.485 7.375 21.25 C7.25125 22.1575 7.1275 23.065 7 24 C4.125 26.125 4.125 26.125 1 28 C0.34 28.99 -0.32 29.98 -1 31 C-2.32 30.67 -3.64 30.34 -5 30 C-3.71142987 28.68445979 -2.41904109 27.37265903 -1.125 26.0625 C-0.40570313 25.33160156 0.31359375 24.60070312 1.0546875 23.84765625 C3 22 3 22 5 21 C6.46154948 16.61535156 6.74746561 12.57233468 6 8 C4.34263394 4.98968205 2.34706508 2.50074196 0 0 Z " fill="#D89048" transform="translate(358,180)"/>
<path d="M0 0 C0.66 0 1.32 0 2 0 C2.66 0.99 3.32 1.98 4 3 C6.55183404 4.20450304 6.55183404 4.20450304 9 5 C9 6.32 9 7.64 9 9 C9.928125 8.938125 10.85625 8.87625 11.8125 8.8125 C15 9 15 9 16.6875 10.125 C18 12 18 12 19.4375 14.9375 C20.97035791 17.94190151 22.50898822 19.76667909 25 22 C15.13592847 18.50829326 6.76665271 9.74565779 0 2 C0 1.34 0 0.68 0 0 Z " fill="#CE7215" transform="translate(188,279)"/>
<path d="M0 0 C13.02338497 3.96776597 22.64965654 13.52330055 32 23 C31.67 23.66 31.34 24.32 31 25 C25.25 21.375 25.25 21.375 23 18 C22.01 17.67 21.02 17.34 20 17 C18.18034897 15.47149313 17.14388877 14.40999631 16.3515625 12.15234375 C14.32461995 8.92446704 11.22270535 7.59784946 7.9375 5.875 C1.11993243 2.23986486 1.11993243 2.23986486 0 0 Z " fill="#C67322" transform="translate(391,47)"/>
<path d="M0 0 C0.33 1.32 0.66 2.64 1 4 C0.34 4 -0.32 4 -1 4 C-1.66 5.32 -2.32 6.64 -3 8 C-3.66 8 -4.32 8 -5 8 C-5.226875 8.928125 -5.45375 9.85625 -5.6875 10.8125 C-7 14 -7 14 -9.625 15.5625 C-10.40875 16.036875 -11.1925 16.51125 -12 17 C-12.41780879 19.62694422 -12.41780879 19.62694422 -12 22 C-13.32 21.34 -14.64 20.68 -16 20 C-15.48514682 15.96342918 -14.53647628 14.04785523 -11.62109375 11.23046875 C-10.94755859 10.56982422 -10.27402344 9.90917969 -9.58007812 9.22851562 C-8.87302734 8.55498047 -8.16597656 7.88144531 -7.4375 7.1875 C-6.72658203 6.49462891 -6.01566406 5.80175781 -5.28320312 5.08789062 C-3.53081688 3.3825483 -1.76978531 1.68724824 0 0 Z " fill="#D98732" transform="translate(331,198)"/>
<path d="M0 0 C-0.66 0 -1.32 0 -2 0 C-2 0.66 -2 1.32 -2 2 C-2.68707031 2.25394531 -3.37414062 2.50789063 -4.08203125 2.76953125 C-4.98308594 3.11371094 -5.88414062 3.45789062 -6.8125 3.8125 C-7.70582031 4.14894531 -8.59914062 4.48539063 -9.51953125 4.83203125 C-11.95595102 5.97925882 -13.2491757 6.99680463 -15 9 C-17 11 -17 11 -19.875 11.375 C-23.49374212 12.09874842 -24.6701518 13.22210406 -27 16 C-27.99 15.67 -28.98 15.34 -30 15 C-23.3165273 8.89769884 -9.59091314 -3.19697105 0 0 Z " fill="#C56F17" transform="translate(229,45)"/>
<path d="M0 0 C0.33 0 0.66 0 1 0 C1.33 2.97 1.66 5.94 2 9 C2.66 9 3.32 9 4 9 C3.67 11.31 3.34 13.62 3 16 C3.66 16 4.32 16 5 16 C5 18.64 5 21.28 5 24 C5.66 24 6.32 24 7 24 C11.40774487 34.37357631 11.40774487 34.37357631 12 40 C3.58856925 29.369902 -0.96205043 13.46870606 0 0 Z " fill="#C2701E" transform="translate(170,231)"/>
<path d="M0 0 C7.875 0.875 7.875 0.875 9 2 C10.84891946 2.23363881 12.70488031 2.41303635 14.5625 2.5625 C15.57441406 2.64628906 16.58632813 2.73007813 17.62890625 2.81640625 C18.80259766 2.90728516 18.80259766 2.90728516 20 3 C20 3.66 20 4.32 20 5 C22.31 5 24.62 5 27 5 C27 5.66 27 6.32 27 7 C27.59167969 7.04898438 28.18335938 7.09796875 28.79296875 7.1484375 C33.19104472 7.56456867 36.96928897 8.04965595 41 10 C41 10.33 41 10.66 41 11 C34.96251023 10.19500136 28.98729887 9.11517502 23 8 C23 7.34 23 6.68 23 6 C21.89591797 5.90912109 21.89591797 5.90912109 20.76953125 5.81640625 C19.79371094 5.73261719 18.81789063 5.64882812 17.8125 5.5625 C16.36810547 5.44068359 16.36810547 5.44068359 14.89453125 5.31640625 C12.21350398 5.02333849 9.6337014 4.57296246 7 4 C7 3.34 7 2.68 7 2 C4.69 1.67 2.38 1.34 0 1 C0 0.67 0 0.34 0 0 Z " fill="#DA934A" transform="translate(284,120)"/>
<path d="M0 0 C0.99 0.495 0.99 0.495 2 1 C2 1.66 2 2.32 2 3 C2.66 3 3.32 3 4 3 C4 3.66 4 4.32 4 5 C4.598125 5.268125 5.19625 5.53625 5.8125 5.8125 C7.97224808 6.98493467 9.35790256 8.19369282 11 10 C10.360625 10.226875 9.72125 10.45375 9.0625 10.6875 C6.72806339 11.85250896 6.72806339 11.85250896 6.25 14.625 C6.1675 15.40875 6.085 16.1925 6 17 C5.01 16.34 4.02 15.68 3 15 C2.59156077 12.28796348 2.86663133 9.7562858 3 7 C2.34 7 1.68 7 1 7 C0.67 4.69 0.34 2.38 0 0 Z " fill="#E07106" transform="translate(262,143)"/>
<path d="M0 0 C1.47570175 4.42710526 -0.44837035 6.77519302 -2.38671875 10.859375 C-5.04412802 16.03263663 -7.98818485 21.02659919 -11 26 C-11.625 24.125 -11.625 24.125 -12 22 C-11.34 21.34 -10.68 20.68 -10 20 C-9.28591666 18.01643517 -8.61382258 16.01684563 -8 14 C-7.34 14 -6.68 14 -6 14 C-6.33 12.02 -6.66 10.04 -7 8 C-5.35 7.67 -3.7 7.34 -2 7 C-2.04125 6.21625 -2.0825 5.4325 -2.125 4.625 C-2 2 -2 2 0 0 Z " fill="#CB7218" transform="translate(437,252)"/>
<path d="M0 0 C1.32 0 2.64 0 4 0 C4.33 0.66 4.66 1.32 5 2 C5.99 2.33 6.98 2.66 8 3 C11 7.33333333 11 7.33333333 11 10 C12.78857422 10.07347656 12.78857422 10.07347656 14.61328125 10.1484375 C16.17971068 10.22347604 17.74611579 10.2990234 19.3125 10.375 C20.49102539 10.42140625 20.49102539 10.42140625 21.69335938 10.46875 C22.8293457 10.52675781 22.8293457 10.52675781 23.98828125 10.5859375 C25.03302612 10.63306885 25.03302612 10.63306885 26.09887695 10.68115234 C28 11 28 11 31 13 C31 13.66 31 14.32 31 15 C29.95392578 14.49146484 29.95392578 14.49146484 28.88671875 13.97265625 C25.53705799 12.84401548 23.31094253 13.09234306 19.8125 13.4375 C14.15584105 13.55949378 11.58086721 12.53589809 7.375 8.75 C4.66339995 5.99335676 2.25883386 3.13646994 0 0 Z " fill="#D88E44" transform="translate(279,141)"/>
<path d="M0 0 C7.85131668 0.34740339 14.64925625 2.28451906 22 5 C22 5.33 22 5.66 22 6 C19.43366439 6.07332387 17.14378744 6.03027104 14.625 5.5 C11.38510689 4.8828775 8.29008962 4.93548844 5 5 C4.67 4.01 4.34 3.02 4 2 C2.68 2 1.36 2 0 2 C0 1.34 0 0.68 0 0 Z " fill="#C5721A" transform="translate(369,41)"/>
<path d="M0 0 C4.88049925 3.9419417 9.0580583 8.11950075 13 13 C11 12 9 11 7 10 C7 9.34 7 8.68 7 8 C6.34 8 5.68 8 5 8 C4.67 7.34 4.34 6.68 4 6 C4.33 10.62 4.66 15.24 5 20 C3.3043649 16.60872979 2.57480006 14.43814825 1.9375 10.8125 C1.57815332 7.60867047 1.57815332 7.60867047 0 5 C-0.04063832 3.33382885 -0.042721 1.66611905 0 0 Z " fill="#D2873D" transform="translate(259,138)"/>
<path d="M0 0 C0.33 0 0.66 0 1 0 C1.05382106 2.62527189 1.09358313 5.24944713 1.125 7.875 C1.14175781 8.62136719 1.15851563 9.36773437 1.17578125 10.13671875 C1.1933959 12.09194461 1.10320189 14.04742021 1 16 C0.34 16.66 -0.32 17.32 -1 18 C-1.39764263 19.98821313 -1.73775349 21.98944339 -2 24 C-2.33 24 -2.66 24 -3 24 C-3.33328851 15.43325085 -3.11584616 8.04926924 0 0 Z " fill="#CC7015" transform="translate(174,96)"/>
<path d="M0 0 C0.99 0.66 1.98 1.32 3 2 C3 3.32 3 4.64 3 6 C0.36 6.33 -2.28 6.66 -5 7 C-5 8.32 -5 9.64 -5 11 C-6.98 11.33 -8.96 11.66 -11 12 C-7.49102731 7.81576108 -3.91939465 3.80411834 0 0 Z " fill="#DF7C20" transform="translate(347,216)"/>
<path d="M0 0 C0 0.66 0 1.32 0 2 C1.423125 1.938125 1.423125 1.938125 2.875 1.875 C6 2 6 2 8 4 C10.31765729 4.71927295 12.65095874 5.3909893 15 6 C10.87745797 7.68551848 7.10196511 6.28358669 3 5.1875 C2.2884375 5.00896484 1.576875 4.83042969 0.84375 4.64648438 C-2.63888236 3.74658777 -5.87244069 2.79997554 -9 1 C-5.94152152 0.45627049 -3.11227195 0 0 0 Z " fill="#D98835" transform="translate(269,113)"/>
<path d="M0 0 C-9.17735385 5.06184985 -19.769241 5.45209573 -30 5 C-30 4.67 -30 4.34 -30 4 C-26.04 4 -22.08 4 -18 4 C-18 3.34 -18 2.68 -18 2 C-11.92972642 -0.1583195 -6.40629424 -0.20852314 0 0 Z " fill="#C57320" transform="translate(386,307)"/>
<path d="M0 0 C0.33 0.99 0.66 1.98 1 3 C-0.76192285 4.84269011 -2.53351806 6.67390757 -4.3125 8.5 C-5.06176758 9.28697266 -5.06176758 9.28697266 -5.82617188 10.08984375 C-7.16089504 11.4510846 -8.5769384 12.73139516 -10 14 C-10.99 14 -11.98 14 -13 14 C-10.51712435 7.90566886 -4.96608691 4.04216377 0 0 Z " fill="#F7DEBF" transform="translate(352,195)"/>
<path d="M0 0 C0.33 0.66 0.66 1.32 1 2 C0.67 2.99 0.34 3.98 0 5 C-0.99 5 -1.98 5 -3 5 C-3.33 6.32 -3.66 7.64 -4 9 C-6.29045368 9.22127098 -8.58244764 9.4266504 -10.875 9.625 C-12.15117187 9.74101562 -13.42734375 9.85703125 -14.7421875 9.9765625 C-15.81726563 9.98429688 -16.89234375 9.99203125 -18 10 C-18.66 9.34 -19.32 8.68 -20 8 C-19.67 7.01 -19.34 6.02 -19 5 C-18.34 5.66 -17.68 6.32 -17 7 C-10.87031221 7.61296878 -7.91873461 7.0036212 -3 3 C-1.20605554 1.37648891 -1.20605554 1.37648891 0 0 Z " fill="#D78634" transform="translate(335,228)"/>
<path d="M0 0 C1.48117801 0.28127421 2.95993249 0.57533732 4.4375 0.875 C5.67306641 1.11863281 5.67306641 1.11863281 6.93359375 1.3671875 C7.61550781 1.57601562 8.29742187 1.78484375 9 2 C9.33 2.66 9.66 3.32 10 4 C9.01 4 8.02 4 7 4 C7 4.66 7 5.32 7 6 C7.66 6 8.32 6 9 6 C9 6.66 9 7.32 9 8 C9.66 8 10.32 8 11 8 C11 8.99 11 9.98 11 11 C5.74189816 8.85781036 2.35267403 5.07227888 0 0 Z " fill="#D4873B" transform="translate(267,128)"/>
<path d="M0 0 C0.33 0 0.66 0 1 0 C1.13277344 0.98742187 1.26554687 1.97484375 1.40234375 2.9921875 C1.57894531 4.27351562 1.75554687 5.55484375 1.9375 6.875 C2.11152344 8.15117187 2.28554688 9.42734375 2.46484375 10.7421875 C2.81433227 13.87559454 2.81433227 13.87559454 4 16 C4.14679934 17.82934565 4.22102635 19.66500243 4.25 21.5 C4.27578125 22.4796875 4.3015625 23.459375 4.328125 24.46875 C4.21984375 25.3040625 4.1115625 26.139375 4 27 C3.01 27.66 2.02 28.32 1 29 C1.66 25.37 2.32 21.74 3 18 C2.34 18 1.68 18 1 18 C-0.59412284 14.81175432 -0.10174735 11.37103338 -0.0625 7.875 C-0.05798828 7.12089844 -0.05347656 6.36679688 -0.04882812 5.58984375 C-0.03703499 3.72652873 -0.01909942 1.86325445 0 0 Z " fill="#DE9855" transform="translate(329,155)"/>
<path d="M0 0 C0.66 0.33 1.32 0.66 2 1 C-0.6935192 6.3870384 -2.77169421 8.79899646 -8 12 C-9.70328319 13.6292274 -11.38161281 15.28641357 -13 17 C-11.46203092 13.56546802 -9.4264398 10.85610724 -7.0625 7.9375 C-6.37285156 7.08027344 -5.68320313 6.22304687 -4.97265625 5.33984375 C-3.38385308 3.45530297 -1.77941245 1.70131911 0 0 Z " fill="#C37021" transform="translate(197,61)"/>
<path d="M0 0 C3.29696105 1.09898702 4.04670589 1.94597387 6.1875 4.5625 C6.71730469 5.20316406 7.24710937 5.84382812 7.79296875 6.50390625 C8.19128906 6.99761719 8.58960938 7.49132812 9 8 C8.34 9.32 7.68 10.64 7 12 C6.67 12 6.34 12 6 12 C6 10.35 6 8.7 6 7 C5.01 7 4.02 7 3 7 C2.67 6.34 2.34 5.68 2 5 C0.02 5 -1.96 5 -4 5 C-2.68 3.35 -1.36 1.7 0 0 Z " fill="#D48D42" transform="translate(345,184)"/>
<path d="M0 0 C0.33 0 0.66 0 1 0 C1 1.98 1 3.96 1 6 C1.66 6 2.32 6 3 6 C3.53160457 8.41474617 4.05054766 10.83108107 4.5625 13.25 C4.71396484 13.93191406 4.86542969 14.61382812 5.02148438 15.31640625 C5.75233495 18.81769038 6.32203546 21.60298173 5 25 C1.48230794 19.72346191 1.89420559 14.13607598 2 8 C1.34 8 0.68 8 0 8 C0 5.36 0 2.72 0 0 Z " fill="#E0A164" transform="translate(254,166)"/>
<path d="M0 0 C0.99 0.33 1.98 0.66 3 1 C2.97679687 1.86882812 2.95359375 2.73765625 2.9296875 3.6328125 C2.91164063 4.78523437 2.89359375 5.93765625 2.875 7.125 C2.84019531 8.83042969 2.84019531 8.83042969 2.8046875 10.5703125 C3.00327891 14.05757767 3.7475199 16.7553862 5 20 C0.03585086 15.1959847 0.03585086 15.1959847 -0.09765625 10.7421875 C-0.08605469 9.46601563 -0.07445312 8.18984375 -0.0625 6.875 C-0.05347656 5.59367188 -0.04445313 4.31234375 -0.03515625 2.9921875 C-0.02355469 2.00476563 -0.01195312 1.01734375 0 0 Z " fill="#D7883B" transform="translate(281,160)"/>
<path d="M0 0 C2.31 0 4.62 0 7 0 C6.09515208 1.15518918 5.1755794 2.29885406 4.25 3.4375 C3.73953125 4.07558594 3.2290625 4.71367187 2.703125 5.37109375 C0.80332371 7.18810554 -0.43586908 7.60423197 -3 8 C-3.66 6.68 -4.32 5.36 -5 4 C-3.35 4 -1.7 4 0 4 C0 2.68 0 1.36 0 0 Z " fill="#DB8430" transform="translate(324,216)"/>
<path d="M0 0 C4.04704581 0.72404774 7.89070402 1.83446287 11.8125 3.0625 C13.55466797 3.60583984 13.55466797 3.60583984 15.33203125 4.16015625 C16.65267578 4.57587891 16.65267578 4.57587891 18 5 C18.33 8.3 18.66 11.6 19 15 C16.4345406 12.4345406 16.45953913 10.52313332 16 7 C14.92878906 6.66226563 13.85757812 6.32453125 12.75390625 5.9765625 C11.35664325 5.52643751 9.95951469 5.07589504 8.5625 4.625 C7.85544922 4.40328125 7.14839844 4.1815625 6.41992188 3.953125 C4.5937811 3.35897394 2.79422968 2.68450381 1 2 C0.67 1.34 0.34 0.68 0 0 Z " fill="#D78A3E" transform="translate(309,139)"/>
<path d="M0 0 C3.67712007 6.82893728 4.48383536 13.36619666 5 21 C-0.04715418 14.86044807 -0.2794587 7.68511424 0 0 Z " fill="#DD9248" transform="translate(244,129)"/>
<path d="M0 0 C8.68518048 0.40871438 16.69293749 2.61864208 25 5 C21.89484695 5.96804074 19.6488104 5.98121797 16.453125 5.44140625 C15.60878906 5.30283203 14.76445312 5.16425781 13.89453125 5.02148438 C12.58548828 4.79428711 12.58548828 4.79428711 11.25 4.5625 C10.36183594 4.41490234 9.47367187 4.26730469 8.55859375 4.11523438 C6.37108664 3.75064986 4.18510358 3.37867934 2 3 C2 2.34 2 1.68 2 1 C1.34 0.67 0.68 0.34 0 0 Z " fill="#DB934B" transform="translate(279,132)"/>
<path d="M0 0 C0.66 0 1.32 0 2 0 C2.66 0.99 3.32 1.98 4 3 C4.825 3.28875 5.65 3.5775 6.5 3.875 C9 5 9 5 10.0625 7.3125 C10.371875 8.199375 10.68125 9.08625 11 10 C12.28667172 11.70294787 13.61096733 13.37946188 15 15 C10.96918 13.387672 8.24055863 10.53765404 5.25 7.5 C4.74339844 7.00113281 4.23679688 6.50226563 3.71484375 5.98828125 C0 2.25341139 0 2.25341139 0 0 Z " fill="#C77020" transform="translate(188,279)"/>
<path d="M0 0 C0 2.64 0 5.28 0 8 C-1.65 8 -3.3 8 -5 8 C-5.6875 5.6875 -5.6875 5.6875 -6 3 C-4.0819994 0.21889913 -3.45555657 0 0 0 Z " fill="#DE7106" transform="translate(324,212)"/>
<path d="M0 0 C1.65 0 3.3 0 5 0 C5 2.31 5 4.62 5 7 C3.35 7 1.7 7 0 7 C-1.125 2.25 -1.125 2.25 0 0 Z " fill="#DD7205" transform="translate(298,167)"/>
<path d="M0 0 C0.66 0.33 1.32 0.66 2 1 C2 1.66 2 2.32 2 3 C2.78375 3.2475 3.5675 3.495 4.375 3.75 C7.32317108 5.15389099 7.9024777 6.00675737 9 9 C8.34 9 7.68 9 7 9 C7 8.34 7 7.68 7 7 C4.525 6.01 4.525 6.01 2 5 C1.34 6.32 0.68 7.64 0 9 C0 8.34 0 7.68 0 7 C-0.99 6.67 -1.98 6.34 -3 6 C-3 5.34 -3 4.68 -3 4 C-2.01 3.34 -1.02 2.68 0 2 C0 1.34 0 0.68 0 0 Z " fill="#DB7F21" transform="translate(272,151)"/>
<path d="M0 0 C2.475 0.495 2.475 0.495 5 1 C5.33 2.32 5.66 3.64 6 5 C6.99 5 7.98 5 9 5 C9.22226864 6.76913824 9.42733873 8.54044371 9.625 10.3125 C9.74101562 11.29863281 9.85703125 12.28476563 9.9765625 13.30078125 C10 16 10 16 8 19 C8 15.04 8 11.08 8 7 C6.68 6.34 5.36 5.68 4 5 C1.75 2.375 1.75 2.375 0 0 Z " fill="#D58231" transform="translate(358,180)"/>
<path d="M0 0 C1.32 0 2.64 0 4 0 C1.99155908 4.92980953 -1.64105074 8.09403383 -6 11 C-6.33 9.68 -6.66 8.36 -7 7 C-5.35 6.67 -3.7 6.34 -2 6 C-1.855625 5.195625 -1.71125 4.39125 -1.5625 3.5625 C-1 1 -1 1 0 0 Z " fill="#DA802B" transform="translate(326,182)"/>
<path d="M0 0 C2.64 0.33 5.28 0.66 8 1 C8 1.66 8 2.32 8 3 C9.546875 2.938125 9.546875 2.938125 11.125 2.875 C14.86829627 2.99575149 17.53734547 3.64872018 21 5 C21 5.33 21 5.66 21 6 C15.5814234 6.22577402 11.22512279 5.46670113 6 4 C6 3.34 6 2.68 6 2 C4.02 2 2.04 2 0 2 C0 1.34 0 0.68 0 0 Z " fill="#F9E1C6" transform="translate(299,125)"/>
<path d="M0 0 C2.97 0.495 2.97 0.495 6 1 C8.1583195 7.07027358 8.20852314 12.59370576 8 19 C7.67 19 7.34 19 7 19 C6.67 14.71 6.34 10.42 6 6 C5.34 6 4.68 6 4 6 C2.61061923 4.03852126 1.2739589 2.03833424 0 0 Z " fill="#D9914A" transform="translate(310,156)"/>
<path d="M0 0 C0.99 0.495 0.99 0.495 2 1 C2.5625 2.92578125 2.5625 2.92578125 3 5.3125 C3.59530742 8.52822312 4.30862722 11.17898774 6 14 C8.0335948 15.26804566 8.0335948 15.26804566 10 16 C6.31299634 15.78931408 4.99487529 14.9954447 2.1875 12.5 C-0.83043081 8.63327614 -0.46924131 4.69241308 0 0 Z " fill="#D58F49" transform="translate(260,192)"/>
<path d="M0 0 C4.12172083 3.76843047 7.63068221 7.88904305 10 13 C9.67 13.66 9.34 14.32 9 15 C4.82093105 11.44005237 2.31440569 6.91336946 0 2 C0 1.34 0 0.68 0 0 Z " fill="#C2772A" transform="translate(423,72)"/>
<path d="M0 0 C0 0.66 0 1.32 0 2 C0.66 2.33 1.32 2.66 2 3 C-3.96345767 4.0006709 -8.28728907 4.0662997 -14 2 C-14 1.67 -14 1.34 -14 1 C-4.58997722 -0.14806378 -4.58997722 -0.14806378 0 0 Z " fill="#CA7319" transform="translate(244,307)"/>
<path d="M0 0 C1.65 0.33 3.3 0.66 5 1 C4.06725891 2.12894876 3.12859878 3.25300876 2.1875 4.375 C1.66542969 5.00148437 1.14335937 5.62796875 0.60546875 6.2734375 C-1 8 -1 8 -4 10 C-3.67 8.02 -3.34 6.04 -3 4 C-2.34 4 -1.68 4 -1 4 C-0.67 2.68 -0.34 1.36 0 0 Z " fill="#D67E27" transform="translate(340,201)"/>
<path d="M0 0 C3.20066984 1.60033492 3.70013124 4.75969899 5 7.96875 C5.82709949 10.16560255 5.82709949 10.16560255 8 11 C8 11.66 8 12.32 8 13 C6.25 12.875 6.25 12.875 4 12 C1.30729915 8.78371843 0.06229107 6.84092949 -0.25 2.625 C-0.12625 1.325625 -0.12625 1.325625 0 0 Z " fill="#FBE8D1" transform="translate(262,194)"/>
<path d="M0 0 C0.33 0.66 0.66 1.32 1 2 C-0.07192184 3.3218362 -1.15802695 4.63217927 -2.25 5.9375 C-2.85328125 6.66839844 -3.4565625 7.39929688 -4.078125 8.15234375 C-6.10741134 10.10326334 -7.254407 10.61731779 -10 11 C-6.79239749 7.19364503 -3.59253891 3.45436433 0 0 Z " fill="#FCEAD2" transform="translate(335,212)"/>
<path d="M0 0 C0.66 0.33 1.32 0.66 2 1 C2 5.29 2 9.58 2 14 C1.34 14 0.68 14 0 14 C-0.99293628 11.02119115 -1.13406411 8.98398802 -1.125 5.875 C-1.12757813 4.98554687 -1.13015625 4.09609375 -1.1328125 3.1796875 C-1 1 -1 1 0 0 Z " fill="#D47418" transform="translate(242,119)"/>
<path d="M0 0 C1.65 0 3.3 0 5 0 C4.04578192 1.14926266 3.08647955 2.29430541 2.125 3.4375 C1.59132813 4.07558594 1.05765625 4.71367187 0.5078125 5.37109375 C-1 7 -1 7 -3 8 C-3.33 6.35 -3.66 4.7 -4 3 C-2.68 3.33 -1.36 3.66 0 4 C0 2.68 0 1.36 0 0 Z " fill="#D7842B" transform="translate(315,193)"/>
<path d="M0 0 C-0.99 0.33 -1.98 0.66 -3 1 C-3 1.66 -3 2.32 -3 3 C-4.62463842 3.05395478 -6.24978541 3.09277195 -7.875 3.125 C-8.77992188 3.14820313 -9.68484375 3.17140625 -10.6171875 3.1953125 C-13 3 -13 3 -15 1 C-12.87630763 0.63807496 -10.7509887 0.28568253 -8.625 -0.0625 C-6.84996094 -0.35833984 -6.84996094 -0.35833984 -5.0390625 -0.66015625 C-2 -1 -2 -1 0 0 Z " fill="#D7904B" transform="translate(309,186)"/>
<path d="M0 0 C2.4377963 -0.05397335 4.87439685 -0.09365616 7.3125 -0.125 C8.00279297 -0.14175781 8.69308594 -0.15851563 9.40429688 -0.17578125 C13.17135396 -0.21217794 14.78431704 -0.14378864 18 2 C18 2.66 18 3.32 18 4 C17.31550781 3.67257813 16.63101562 3.34515625 15.92578125 3.0078125 C12.51087941 1.83151788 9.78968716 1.80222854 6.1875 1.875 C5.02605469 1.89304688 3.86460937 1.91109375 2.66796875 1.9296875 C1.34732422 1.96449219 1.34732422 1.96449219 0 2 C0 1.34 0 0.68 0 0 Z " fill="#D38537" transform="translate(292,152)"/>
<path d="M0 0 C-1.75 3.875 -1.75 3.875 -4 5 C-4 4.34 -4 3.68 -4 3 C-7.63 3 -11.26 3 -15 3 C-15 2.67 -15 2.34 -15 2 C-13.2508503 1.66223316 -11.50063855 1.32996329 -9.75 1 C-8.77546875 0.814375 -7.8009375 0.62875 -6.796875 0.4375 C-4 0 -4 0 0 0 Z " fill="#D9730B" transform="translate(308,120)"/>
<path d="M0 0 C0 0.99 0 1.98 0 3 C-0.66 3 -1.32 3 -2 3 C-2.2475 3.763125 -2.495 4.52625 -2.75 5.3125 C-4.10995558 8.2364045 -5.31585826 9.30004356 -8 11 C-8.66 10.67 -9.32 10.34 -10 10 C-8.90033225 8.70450101 -7.79508199 7.41373929 -6.6875 6.125 C-6.07261719 5.40570313 -5.45773437 4.68640625 -4.82421875 3.9453125 C-3 2 -3 2 0 0 Z " fill="#FAE3C6" transform="translate(329,184)"/>
<path d="M0 0 C1.89646998 0.11493757 3.79218332 0.24239642 5.6875 0.375 C6.74324219 0.44460937 7.79898437 0.51421875 8.88671875 0.5859375 C11.90677269 0.98760089 14.24078054 1.74069019 17 3 C17 3.33 17 3.66 17 4 C15.00045254 4.04254356 12.99958364 4.04080783 11 4 C10.67 3.67 10.34 3.34 10 3 C8.32115762 2.6068352 6.63149955 2.25914548 4.9375 1.9375 C4.01839844 1.76089844 3.09929687 1.58429688 2.15234375 1.40234375 C1.44207031 1.26957031 0.73179687 1.13679687 0 1 C0 0.67 0 0.34 0 0 Z " fill="#E0A161" transform="translate(284,198)"/>
<path d="M0 0 C3.01246242 1.50623121 3.36585787 3.85583487 4.46875 6.921875 C5.14032349 9.54891247 4.8765333 11.45008494 4 14 C3.67 14 3.34 14 3 14 C3 12.02 3 10.04 3 8 C2.34 8 1.68 8 1 8 C0.67 5.36 0.34 2.72 0 0 Z " fill="#D57D28" transform="translate(339,146)"/>
<path d="M0 0 C0 2.62113708 -0.31292445 4.50935112 -1 7 C-3.31 7.66 -5.62 8.32 -8 9 C-7.04270084 7.87411986 -6.08412105 6.7493285 -5.125 5.625 C-4.59132813 4.99851563 -4.05765625 4.37203125 -3.5078125 3.7265625 C-2.38567993 2.44163349 -1.20628025 1.20628025 0 0 Z " fill="#D98E41" transform="translate(340,189)"/>
<path d="M0 0 C1.5 1.0625 1.5 1.0625 3 3 C3.1875 6.6875 3.1875 6.6875 3 10 C2.34 10 1.68 10 1 10 C-0.60725635 6.78548731 -0.05748185 3.56387464 0 0 Z " fill="#D7791B" transform="translate(326,152)"/>
<path d="M0 0 C4.62 0 9.24 0 14 0 C14 0.33 14 0.66 14 1 C13.15695312 1.13277344 12.31390625 1.26554687 11.4453125 1.40234375 C10.34960938 1.57894531 9.25390625 1.75554687 8.125 1.9375 C6.48917969 2.19853516 6.48917969 2.19853516 4.8203125 2.46484375 C2.06178454 2.85551159 2.06178454 2.85551159 0 4 C0 2.68 0 1.36 0 0 Z " fill="#DB974B" transform="translate(246,113)"/>
<path d="M0 0 C1.625 1.625 1.625 1.625 3 4 C2.1875 7.25 2.1875 7.25 1 10 C0.01 9.34 -0.98 8.68 -2 8 C-1.33333333 5.33333333 -0.66666667 2.66666667 0 0 Z " fill="#DC780F" transform="translate(171,222)"/>
<path d="M0 0 C1.98 0 3.96 0 6 0 C7.0625 1.8125 7.0625 1.8125 8 4 C7.67 4.99 7.34 5.98 7 7 C5.83040013 6.02433888 4.66438823 5.044375 3.5 4.0625 C2.8503125 3.51722656 2.200625 2.97195312 1.53125 2.41015625 C1.0259375 1.94480469 0.520625 1.47945312 0 1 C0 0.67 0 0.34 0 0 Z " fill="#D98C39" transform="translate(350,173)"/>
<path d="M0 0 C1 2 1 2 0.9375 4.375 C1.00402221 7.16893272 1.59276848 8.62529681 3 11 C2.01 12.485 2.01 12.485 1 14 C1 12.68 1 11.36 1 10 C0.34 10 -0.32 10 -1 10 C-1.02689216 8.52093108 -1.04634621 7.04172517 -1.0625 5.5625 C-1.07410156 4.73878906 -1.08570313 3.91507812 -1.09765625 3.06640625 C-1 1 -1 1 0 0 Z " fill="#F4D0A9" transform="translate(244,119)"/>
<path d="M0 0 C1.32 0.33 2.64 0.66 4 1 C0.535 3.97 0.535 3.97 -3 7 C-3.33 5.68 -3.66 4.36 -4 3 C-2.68 3 -1.36 3 0 3 C0 2.01 0 1.02 0 0 Z " fill="#D26E1F" transform="translate(412,288)"/>
<path d="M0 0 C1.24546405 2.49092811 0.7767578 3.41080733 0 6 C-1.98 6.33 -3.96 6.66 -6 7 C-4.02 4.69 -2.04 2.38 0 0 Z " fill="#D48C40" transform="translate(342,221)"/>
<path d="M0 0 C0.66 0.33 1.32 0.66 2 1 C0.35 2.98 -1.3 4.96 -3 7 C-4.32 6.67 -5.64 6.34 -7 6 C-4.69 4.02 -2.38 2.04 0 0 Z " fill="#BB6F1C" transform="translate(206,54)"/>
<path d="M0 0 C0 4.38968456 -2.12805101 5.76905739 -5 9 C-5.99 8.67 -6.98 8.34 -8 8 C-7.34 8 -6.68 8 -6 8 C-5.7525 7.4225 -5.505 6.845 -5.25 6.25 C-3.83316683 3.6997003 -2.12372463 1.98214299 0 0 Z " fill="#FDEBD4" transform="translate(318,195)"/>
<path d="M0 0 C0.99 0.495 0.99 0.495 2 1 C2.4140625 3.06640625 2.4140625 3.06640625 2.625 5.5625 C2.69976562 6.38878906 2.77453125 7.21507812 2.8515625 8.06640625 C2.92503906 9.02353516 2.92503906 9.02353516 3 10 C2.01 9.67 1.02 9.34 0 9 C0 6.03 0 3.06 0 0 Z " fill="#F5D8B8" transform="translate(259,143)"/>
<path d="M0 0 C1.32 0.33 2.64 0.66 4 1 C4 3.97 4 6.94 4 10 C2.33094759 6.66189518 1.1258614 3.53842155 0 0 Z " fill="#D68535" transform="translate(335,135)"/>
<path d="M0 0 C4.455 0.99 4.455 0.99 9 2 C9 2.33 9 2.66 9 3 C7.35 3 5.7 3 4 3 C3.67 3.66 3.34 4.32 3 5 C1.5 3.625 1.5 3.625 0 2 C0 1.34 0 0.68 0 0 Z " fill="#D9A26E" transform="translate(267,128)"/>
<path d="M0 0 C2.475 0.495 2.475 0.495 5 1 C5.33 3.31 5.66 5.62 6 8 C1.125 3.375 1.125 3.375 0 0 Z " fill="#C7711C" transform="translate(182,271)"/>
<path d="M0 0 C4.875 0.875 4.875 0.875 6 2 C6.04092937 4.33297433 6.04241723 6.66705225 6 9 C4.0549 6.08235 3.54723683 4.37462715 3 1 C2.01 0.67 1.02 0.34 0 0 Z " fill="#F7DEBF" transform="translate(299,213)"/>
<path d="M0 0 C0.66 0.99 1.32 1.98 2 3 C0.02 5.97 0.02 5.97 -2 9 C-2.6875 7.3125 -2.6875 7.3125 -3 5 C-1.5625 2.25 -1.5625 2.25 0 0 Z " fill="#D9700C" transform="translate(178,91)"/>
<path d="M0 0 C0 0.99 0 1.98 0 3 C-2.5 5.1875 -2.5 5.1875 -5 7 C-5 5.68 -5 4.36 -5 3 C-2.5 1.25 -2.5 1.25 0 0 Z " fill="#CD741E" transform="translate(421,281)"/>
<path d="M0 0 C1.39195915 4.17587745 -0.17676781 6.13474776 -2 10 C-3.26066301 6.21801096 -2.42292658 4.63636792 -1 1 C-0.67 0.67 -0.34 0.34 0 0 Z " fill="#C0711F" transform="translate(437,252)"/>
<path d="M0 0 C0.99 0 1.98 0 3 0 C3 2.31 3 4.62 3 7 C2.01 6.67 1.02 6.34 0 6 C0 4.02 0 2.04 0 0 Z " fill="#CD8235" transform="translate(295,167)"/>
<path d="M0 0 C2.5625 2.25 2.5625 2.25 5 5 C4.8125 7.3125 4.8125 7.3125 4 9 C0 2.25 0 2.25 0 0 Z " fill="#C7701C" transform="translate(423,72)"/>
</svg>
